<svg xmlns="http://www.w3.org/2000/svg" width="820" height="732" viewBox="0 0 820 732" version="1.1">
	<path d="M 154 18.437 C 154 20.229, 148.999 65.283, 148.710 66.087 C 148.595 66.411, 140.850 64.997, 131.500 62.946 C 122.150 60.895, 114.400 59.306, 114.277 59.414 C 114.155 59.523, 117.193 67.661, 121.027 77.499 C 124.862 87.337, 128 95.548, 128 95.746 C 128 95.944, 120.508 99.690, 111.351 104.071 C 102.195 108.452, 94.955 112.288, 95.263 112.596 C 95.571 112.905, 102.726 116.012, 111.162 119.503 C 119.598 122.993, 126.400 126.127, 126.278 126.467 C 126.156 126.806, 120.361 130.840, 113.401 135.430 L 100.747 143.775 109.694 148.396 C 123.707 155.634, 123.025 154.033, 116.948 165.406 C 113.332 172.174, 112.072 175.426, 112.874 175.922 C 113.513 176.317, 118.307 177.444, 123.528 178.428 L 133.020 180.216 127.942 189.608 C 124.788 195.441, 123.363 198.994, 124.182 198.983 C 124.907 198.973, 128.875 198.081, 133 197 C 144.026 194.110, 145.033 194.264, 148.232 199.328 C 152.244 205.679, 158.771 211.741, 164.743 214.663 C 170.722 217.588, 171.716 220.397, 167.360 222.053 C 165.908 222.605, 156.660 225.368, 146.808 228.192 C 135.465 231.444, 128.596 233.909, 128.080 234.914 C 127.632 235.786, 119.583 261.701, 110.194 292.502 L 93.123 348.504 94.968 405.061 C 96.435 450.005, 97.123 462.359, 98.321 465.227 C 100.087 469.452, 98.811 477.248, 96.499 476.361 C 94.462 475.579, 90.428 481.738, 85.983 492.419 C 83.242 499.006, 81.994 503.389, 82.197 505.718 L 82.500 509.191 100.302 516.716 C 117.341 523.918, 118.165 524.160, 119.543 522.370 C 120.833 520.693, 120.929 521.068, 120.473 526 C 119.448 537.064, 117 567.519, 117 569.200 C 117 570.825, 117.257 570.819, 121.250 569.109 C 125.639 567.230, 138.995 563.611, 139.448 564.179 C 139.588 564.356, 140.247 599.825, 140.911 643 C 141.634 689.935, 142.498 721.634, 143.060 721.833 C 143.577 722.017, 144 724.379, 144 727.083 L 144 732 155.250 731.921 C 161.438 731.878, 165.938 731.615, 165.250 731.338 C 164.515 731.041, 164 729.014, 164 726.417 C 164 722.798, 164.332 722, 165.837 722 C 167.585 722, 167.705 719.648, 168.336 673.250 C 168.700 646.438, 168.998 610.369, 168.999 593.098 L 169 561.695 180.717 562.364 C 187.161 562.732, 192.722 563.364, 193.075 563.767 C 193.427 564.170, 194.542 599.093, 195.553 641.373 C 197.049 704.013, 197.648 718.505, 198.786 719.643 C 199.740 720.597, 200.075 722.778, 199.841 726.521 L 199.500 732.003 211.809 732.001 C 219.760 732, 223.899 731.646, 223.500 731 C 223.160 730.450, 222.234 730, 221.441 730 C 220.378 730, 220 728.687, 220 725 C 220 720.700, 220.274 720, 221.961 720 C 223.896 720, 223.915 719.019, 223.401 645.750 C 223.114 604.913, 222.724 570.712, 222.533 569.750 C 222.125 567.685, 223.771 567.543, 230.760 569.042 C 234.520 569.848, 236.018 570.761, 237.388 573.079 C 238.361 574.726, 240.939 577.199, 243.117 578.574 C 245.295 579.949, 247.525 582.252, 248.072 583.691 C 248.620 585.130, 251.077 588.076, 253.534 590.239 C 255.990 592.401, 258 594.629, 258 595.190 C 258 595.751, 259.269 598.091, 260.821 600.390 C 262.372 602.689, 264.282 606.016, 265.065 607.785 C 265.848 609.553, 266.828 611, 267.244 611 C 267.660 611, 268 611.825, 268 612.833 C 268 613.842, 268.321 614.987, 268.713 615.379 C 269.756 616.422, 273.001 625.248, 272.985 627 C 272.961 629.640, 279.399 641.261, 282.410 644.014 L 285.320 646.675 283.642 686.087 C 281.644 733.037, 281.657 729, 283.500 729 C 284.325 729, 285 729.675, 285 730.500 C 285 731.716, 286.611 732, 293.500 732 C 298.500 732, 302 731.588, 302 731 C 302 730.450, 302.872 730, 303.939 730 C 306.283 730, 306.279 730.023, 309.022 698 C 310.129 685.075, 311.271 672.641, 311.560 670.370 L 312.087 666.239 317.524 669.185 C 320.515 670.804, 323.222 672.551, 323.540 673.065 C 323.858 673.579, 325.033 674, 326.152 674 C 328.157 674, 328.177 674.326, 327.541 697.250 C 327.186 710.038, 326.677 721.550, 326.408 722.833 C 326.044 724.575, 326.437 725.302, 327.960 725.700 C 329.418 726.081, 330 727.055, 330 729.117 L 330 732 338.500 732 C 346.900 732, 347 731.971, 347 729.500 C 347 727.739, 347.544 727, 348.841 727 C 350.498 727, 350.799 725.473, 351.848 711.750 C 352.489 703.363, 353.010 694.836, 353.006 692.802 L 353 689.104 356.250 690.216 C 358.038 690.827, 359.725 691.643, 360 692.029 C 360.916 693.315, 368.893 697, 370.760 697 C 371.772 697, 373.069 697.469, 373.641 698.041 C 374.996 699.396, 440.246 698.049, 468 696.092 C 484.721 694.914, 491.933 691.430, 504.715 678.357 C 508.134 674.860, 511.193 672, 511.513 672 C 512.937 672, 516.940 666.280, 516.968 664.205 C 516.986 662.942, 518.031 660.878, 519.292 659.617 C 522.726 656.183, 529 643.141, 529 639.437 C 529 635.898, 534.641 628.108, 538.180 626.759 C 541.655 625.435, 544.271 621.596, 545.495 616.024 C 545.907 614.148, 546.809 612.048, 547.500 611.357 C 548.192 610.666, 549.067 607.616, 549.447 604.580 C 550.054 599.718, 550.604 598.690, 554.057 595.955 C 556.213 594.247, 558.752 591.196, 559.698 589.175 C 560.644 587.154, 563.124 583.025, 565.208 580 C 567.292 576.975, 569.013 574.050, 569.032 573.500 C 569.084 571.982, 572.098 568.738, 576 566 C 583.986 560.395, 586.279 555.227, 587.979 539 C 588.979 529.457, 590.353 524.370, 592.666 521.653 C 595.842 517.924, 596.797 515.493, 597.474 509.411 C 598.090 503.882, 598.895 501.106, 601.164 496.689 C 603.508 492.124, 605.975 481.986, 605.987 476.872 C 605.996 473.103, 606.495 470.834, 607.500 470 C 608.325 469.315, 609 467.305, 609 465.533 C 609 463.580, 609.788 461.597, 611 460.500 C 612.100 459.505, 613 457.558, 613 456.174 C 613 454.790, 613.595 452.947, 614.323 452.079 C 616.331 449.683, 615.105 384.571, 612.984 381 C 611.845 379.081, 611.342 373.037, 610.820 355 C 610.030 327.689, 609.354 320.539, 607.410 318.925 C 606.492 318.164, 606 315.724, 606 311.937 C 606 308.736, 605.550 305.840, 605 305.500 C 604.450 305.160, 604 301.409, 604 297.163 C 604 291.421, 603.552 288.812, 602.250 286.973 C 600.753 284.857, 600.495 282.043, 600.463 267.500 C 600.437 255.940, 600.014 249.540, 599.139 247.500 C 597.752 244.265, 596.344 238.452, 595.024 230.500 C 594.567 227.750, 592.992 220.775, 591.524 215 C 590.056 209.225, 588.489 202.762, 588.041 200.638 C 587.594 198.515, 585.827 194.789, 584.114 192.359 C 581.912 189.236, 581 186.795, 581 184.030 C 581 181.878, 580.550 179.840, 580 179.500 C 579.450 179.160, 579 177.810, 579 176.500 C 579 175.190, 578.550 173.840, 578 173.500 C 577.450 173.160, 577 172.215, 577 171.399 C 577 169.254, 571.147 157.059, 568.368 153.416 C 567.065 151.708, 565.091 147.652, 563.980 144.405 C 562.870 141.157, 561.295 137.082, 560.481 135.349 C 559.666 133.616, 559 131.782, 559 131.273 C 559 130.765, 557.868 129.285, 556.484 127.985 C 555.100 126.685, 552.889 123.794, 551.570 121.561 C 550.251 119.327, 546.664 115.475, 543.599 113 C 540.534 110.525, 536.783 107.488, 535.263 106.251 C 533.743 105.014, 532.095 104.002, 531.600 104.001 C 528.277 103.997, 519.340 97.953, 513.355 91.665 C 505.329 83.231, 502 79.286, 502 78.208 C 502 76.749, 483.507 58.268, 480.500 56.722 C 474.928 53.857, 470.176 51.985, 466.830 51.338 C 462.795 50.557, 453.353 46.379, 452.498 44.997 C 452.159 44.449, 448.646 43.994, 444.691 43.986 C 436.166 43.970, 433 43.265, 433 41.383 C 433 40.231, 426.864 40, 396.188 40 C 361.422 40, 359.146 40.111, 355.236 42 C 352.959 43.100, 350.426 44, 349.607 44 C 348.788 44, 347.840 44.450, 347.500 45 C 347.160 45.550, 346.189 46, 345.342 46 C 342.105 46, 335.482 49.821, 330.420 54.610 C 329.193 55.771, 326.636 57.680, 324.739 58.853 C 320.574 61.427, 307 75.609, 307 77.386 C 307 78.082, 305.852 79.730, 304.448 81.049 C 303.045 82.367, 301.022 85.258, 299.953 87.473 C 298.884 89.688, 296.994 93.300, 295.754 95.500 C 294.514 97.700, 292.873 101.300, 292.106 103.500 C 289.497 110.989, 284.347 117.505, 268.978 132.760 C 260.534 141.142, 253.358 148, 253.031 148 C 252.492 148, 242.260 135.041, 240.706 132.390 C 240.340 131.766, 245.403 125.964, 252.278 119.132 C 262.086 109.383, 264.204 106.794, 263 106.026 C 262.175 105.499, 256.278 103.184, 249.896 100.882 L 238.291 96.695 247.187 78.222 C 252.079 68.062, 255.908 59.575, 255.695 59.362 C 255.482 59.148, 248.700 60.555, 240.624 62.487 C 232.548 64.419, 225.504 66, 224.970 66 C 224.415 66, 223.944 61.618, 223.868 55.750 C 223.796 50.112, 223.459 40.347, 223.118 34.050 L 222.500 22.599 206.500 41.722 C 197.700 52.240, 190.217 60.768, 189.872 60.673 C 189.527 60.578, 181.513 50.712, 172.063 38.750 C 162.613 26.788, 154.683 17, 154.441 17 C 154.198 17, 154 17.647, 154 18.437 M 242.257 159.766 C 239.114 161.792, 238.013 163.155, 238.007 165.027 C 238.003 166.418, 237.389 168.443, 236.643 169.527 C 235.523 171.155, 235.509 172.112, 236.567 175 C 237.534 177.642, 237.866 177.963, 237.924 176.309 C 237.966 175.104, 238.421 173.858, 238.936 173.540 C 240.057 172.847, 247.550 156.959, 246.729 157.016 C 246.603 157.025, 244.591 158.262, 242.257 159.766 M 228.070 189.250 C 228.109 191.037, 228.509 193.400, 228.960 194.500 C 229.711 196.332, 229.873 196.248, 230.890 193.500 C 231.501 191.850, 232.429 189.753, 232.953 188.839 C 233.645 187.633, 233.486 187.017, 232.371 186.589 C 229.047 185.313, 227.999 185.962, 228.070 189.250 M 212.152 206.063 C 209.148 209.498, 205.678 212.034, 200.922 214.268 C 194.346 217.356, 194.039 217.656, 194.027 221 L 194.015 224.500 204.507 228.176 C 211.918 230.772, 215 231.469, 215 230.548 C 215 229.831, 215.671 228.688, 216.490 228.008 C 218.698 226.176, 225 213.357, 225 210.699 C 225 209.434, 225.365 207.972, 225.810 207.450 C 226.256 206.928, 227.146 205.262, 227.789 203.750 L 228.957 201 222.729 201.045 C 216.528 201.090, 216.481 201.112, 212.152 206.063 M 124.626 328.500 L 117.752 349.500 119.726 405.500 C 120.835 436.952, 121.339 462.773, 120.876 464.403 C 120.105 467.119, 121.954 473.236, 123.912 474.446 C 124.280 474.673, 126.279 452.954, 128.354 426.180 C 131.896 380.473, 132.107 375.362, 131.813 342.500 L 131.500 307.500 124.626 328.500 " stroke="none" fill="black" fill-rule="evenodd"/>
</svg>