<svg xmlns="http://www.w3.org/2000/svg" width="820" height="732" viewBox="0 0 820 732" version="1.1">
	<path d="M 362.750 40.689 C 361.788 40.941, 361 41.612, 361 42.180 C 361 42.749, 361.712 42.941, 362.582 42.607 C 363.452 42.273, 365.814 41.993, 367.832 41.985 C 370.568 41.973, 371.119 41.723, 370 41 C 368.455 40.002, 365.814 39.889, 362.750 40.689 M 409 41.011 L 405.500 41.569 409.959 42.217 C 412.411 42.574, 415.055 42.509, 415.834 42.073 C 417.827 40.958, 413.527 40.289, 409 41.011 M 358 43 C 358 43.550, 358.477 44, 359.059 44 C 359.641 44, 359.840 43.550, 359.500 43 C 359.160 42.450, 358.684 42, 358.441 42 C 358.198 42, 358 42.450, 358 43 M 422.500 43 C 422.122 43.611, 423.557 43.973, 426.191 43.930 C 429.516 43.875, 430.043 43.663, 428.500 43 C 425.733 41.811, 423.235 41.811, 422.500 43 M 448.007 44.750 C 448.022 46.428, 455.116 50.150, 463.547 52.905 C 474.911 56.616, 479.483 57.591, 478.566 56.107 C 478.190 55.498, 477.296 55, 476.580 55 C 474.771 55, 460.182 50.314, 456.393 48.516 C 454.678 47.703, 452.708 46.354, 452.015 45.518 C 450.712 43.949, 447.995 43.428, 448.007 44.750 M 348.856 45.477 C 348.593 45.740, 347.506 46.102, 346.439 46.283 C 344.448 46.619, 337.061 50.060, 333.500 52.308 C 331.113 53.816, 326.770 57.601, 319.132 64.831 L 313.500 70.163 320.750 65.001 C 324.738 62.162, 328 59.426, 328 58.920 C 328 58.414, 328.401 58, 328.892 58 C 329.383 58, 333.770 55.531, 338.642 52.513 C 350.693 45.048, 350.576 45.125, 349.917 45.059 C 349.596 45.026, 349.119 45.215, 348.856 45.477 M 309.557 74.223 C 308.701 75.445, 308 76.886, 308 77.425 C 308 77.964, 306.704 79.776, 305.121 81.452 C 301.840 84.925, 296.609 94, 297.887 94 C 298.353 94, 299.992 92.088, 301.530 89.750 C 303.068 87.412, 305.350 84.600, 306.603 83.500 C 307.855 82.400, 309.791 79.362, 310.904 76.750 C 313.012 71.804, 312.251 70.376, 309.557 74.223 M 294.560 98.618 C 293.605 102.421, 294.602 102.671, 296.452 99.093 C 297.788 96.510, 297.818 96, 296.634 96 C 295.855 96, 294.921 97.178, 294.560 98.618 M 291.732 106.250 C 291.072 110.584, 291.332 110.623, 293.305 106.487 C 294.645 103.677, 294.702 103, 293.597 103 C 292.820 103, 292.013 104.405, 291.732 106.250 M 539 111 C 539 111.550, 539.477 112, 540.059 112 C 540.641 112, 540.840 111.550, 540.500 111 C 540.160 110.450, 539.684 110, 539.441 110 C 539.198 110, 539 110.450, 539 111 M 285.820 116.750 C 284.044 118.813, 279.387 123.650, 275.471 127.500 C 267.604 135.233, 261.484 142, 262.357 142 C 263.544 142, 274.741 132.500, 280 127.030 C 284.900 121.934, 291.006 113, 289.588 113 C 289.291 113, 287.596 114.688, 285.820 116.750 M 555.232 129 C 555.919 130.100, 556.893 131, 557.396 131 C 557.898 131, 557.495 130.100, 556.500 129 C 555.505 127.900, 554.531 127, 554.337 127 C 554.142 127, 554.545 127.900, 555.232 129 M 437.702 134.614 C 432.183 136.310, 431.118 138.005, 433.390 141.473 C 434.276 142.824, 435 144.717, 435 145.679 C 435 147.255, 434.847 147.276, 433.459 145.887 C 432.611 145.039, 431.148 142.805, 430.209 140.923 C 428.639 137.779, 428.021 137.441, 422.625 136.770 C 414.035 135.704, 412.498 137.158, 419.297 139.918 C 422.318 141.144, 425.680 143.126, 426.770 144.323 C 429.218 147.014, 431.332 151.002, 430.664 151.669 C 429.839 152.494, 421.903 148.311, 415.186 143.512 C 408.048 138.412, 405.076 137.963, 395.299 140.511 C 392.109 141.342, 386.220 141.938, 382.212 141.835 C 376.662 141.692, 374.540 142.032, 373.314 143.257 C 371.835 144.736, 371.970 144.935, 374.981 145.715 L 378.257 146.564 374.378 149.155 C 372.245 150.579, 368.925 154.283, 367 157.385 C 365.075 160.488, 361.137 165.982, 358.250 169.596 C 351.736 177.747, 351.508 180.198, 357 183 C 363.787 186.462, 362.932 188.440, 348.615 202.413 C 338.242 212.537, 336.122 215.116, 335.562 218.295 C 335.047 221.212, 335.370 222.863, 336.958 225.432 C 339.425 229.424, 338.939 231.349, 334.364 235.699 C 331.681 238.250, 331 239.678, 331 242.749 C 331 248.910, 334.239 250.694, 338.907 247.105 C 340.857 245.606, 341.389 244.138, 341.709 239.377 C 342.244 231.422, 342.731 229.412, 344.573 227.570 C 346.801 225.342, 349 225.622, 349 228.134 C 349 229.308, 349.515 231.987, 350.145 234.089 C 351.099 237.274, 351.019 238.322, 349.663 240.391 C 345.537 246.689, 337.937 261.656, 335.390 268.500 C 334.147 271.842, 333.626 275.489, 333.819 279.500 C 334.145 286.274, 335.552 288.817, 336.528 284.395 C 338.617 274.928, 343.104 266.021, 345.792 266.007 C 346.664 266.002, 346.286 267.381, 344.629 270.250 C 340.550 277.310, 339.461 282.337, 341.001 287.003 C 342.007 290.052, 342.052 291.590, 341.191 293.481 C 339.734 296.679, 337.108 295.792, 336.317 291.835 C 335.683 288.664, 333.711 288.507, 333.151 291.583 C 332.960 292.637, 332.212 294.850, 331.491 296.500 C 330.769 298.150, 329.216 304.838, 328.039 311.363 C 325.686 324.412, 323.544 331.741, 321.444 333.928 C 320.259 335.162, 319.989 335.136, 319.451 333.733 C 318.421 331.048, 320.834 318.457, 324.152 309.199 C 325.868 304.415, 327.490 298.993, 327.757 297.150 C 328.214 293.997, 328.118 293.867, 326.124 294.933 C 323.443 296.368, 321.203 300.813, 316.513 314 C 314.459 319.775, 311.618 326.044, 310.200 327.932 L 307.621 331.363 306.742 328.725 C 304.879 323.138, 312.289 303.831, 321.604 290 C 325.323 284.478, 329 276.269, 329 273.489 C 329 271.199, 325.078 271.703, 321.465 274.459 C 318.715 276.557, 318.136 277.770, 317.526 282.709 C 316.825 288.394, 315.893 290.866, 306.479 312 C 303.907 317.775, 300.532 326.100, 298.979 330.500 C 297.427 334.900, 295.004 340.975, 293.595 344 C 292.186 347.025, 290.311 352.741, 289.427 356.702 C 287.651 364.664, 286.042 366.961, 283.981 364.478 C 282.950 363.234, 282.937 361.859, 283.917 357.480 C 285.172 351.870, 284.840 350, 282.585 350 C 281.693 350, 281.117 352.260, 280.738 357.250 C 280.084 365.869, 277.537 376.251, 275.201 379.816 C 271.741 385.097, 265.971 404.297, 265.346 412.614 C 264.568 422.946, 266.205 430.433, 269.748 432.755 C 272.795 434.751, 275 439.667, 275 444.465 C 275 447.115, 274.100 448.991, 271.384 451.997 C 269.081 454.546, 268.301 456, 269.238 456 C 271.921 456, 276 460.723, 276 463.830 C 276 467.082, 274.091 472.014, 271.149 476.363 C 269.230 479.200, 269.230 479.267, 271.238 483.863 C 272.352 486.413, 274.885 490.729, 276.867 493.454 C 280.274 498.139, 280.498 498.933, 280.985 508.039 C 281.427 516.297, 281.251 517.932, 279.750 519.510 C 277.420 521.960, 277.567 524.720, 280.266 529.239 C 288.875 543.651, 290.777 546.476, 293.308 548.606 C 294.873 549.923, 296.857 551, 297.716 551 C 299.868 551, 301.930 548.030, 301.968 544.875 C 301.994 542.748, 301.431 542.136, 299 541.650 C 296.141 541.078, 296 540.812, 296 535.993 C 296 533.211, 295.352 529.385, 294.560 527.490 C 292.442 522.421, 294.553 522.189, 297.066 527.215 C 298.245 529.572, 301.127 533.975, 303.471 537 C 311.358 547.178, 313.785 553.487, 310.250 554.627 C 309.288 554.938, 307.850 555.393, 307.056 555.639 C 305.970 555.975, 306.277 556.701, 308.295 558.573 C 311.583 561.621, 312.721 565.616, 311.059 568.278 C 310.055 569.885, 310.100 570.529, 311.301 571.729 C 313.259 573.687, 316.404 572.603, 317.827 569.481 C 318.448 568.116, 319.677 567, 320.558 567 C 322.554 567, 333.661 576.564, 335.626 579.974 C 337.005 582.367, 337.062 582.200, 336.712 576.797 C 336.230 569.340, 337.602 570.262, 338.500 577.998 C 338.968 582.028, 339.640 584, 340.547 584 C 342.275 584, 346.660 589.728, 348.105 593.872 C 349.031 596.526, 349.580 596.946, 351.359 596.360 C 354.163 595.435, 358.156 595.756, 359.406 597.006 C 359.953 597.553, 361.140 598, 362.045 598 C 364.409 598, 366.583 600.772, 368.705 606.492 C 369.797 609.437, 371.262 611.619, 372.278 611.815 C 373.224 611.997, 375.677 610.763, 377.727 609.073 C 379.778 607.383, 382.012 606, 382.693 606 C 384.830 606, 386.188 609.925, 385.487 614.075 C 384.899 617.557, 385.050 618, 386.829 618 C 391.801 618, 410.335 629.535, 418.529 637.729 C 420.328 639.528, 422.299 641, 422.908 641 C 423.518 641, 424.740 639.192, 425.624 636.981 C 427.965 631.130, 431.171 629, 437.635 629 C 440.586 629, 443 628.735, 443 628.410 C 443 628.086, 441.987 627, 440.750 625.996 C 437.207 623.124, 439.365 622.560, 447.236 624.303 C 457.699 626.618, 467.564 627.304, 482.500 626.754 C 484.150 626.693, 486.180 626.955, 487.011 627.337 C 488.129 627.850, 489.392 626.448, 491.868 621.943 C 495.359 615.593, 497.354 613.954, 499.267 615.867 C 501.003 617.603, 503.489 617.222, 505.593 614.898 C 506.639 613.741, 508.762 612.140, 510.310 611.340 C 514.401 609.224, 513.568 606.118, 508.103 603.109 C 504.030 600.866, 503.841 600.589, 505.544 599.344 C 506.572 598.593, 509.884 598, 513.056 598 C 521.860 598, 526.793 592.936, 522.333 588.476 C 520.101 586.244, 520.223 581.516, 522.581 578.910 C 523.634 577.747, 527.466 575.030, 531.096 572.874 C 541.763 566.537, 545.037 561.372, 542.385 555.065 C 539.802 548.920, 541.634 531.262, 544.732 532.451 C 545.487 532.740, 545.862 532.585, 545.566 532.106 C 545.269 531.627, 545.872 530.161, 546.904 528.849 C 548.519 526.797, 549.607 520.649, 549.134 516.250 C 548.967 514.688, 545.626 514.644, 541.467 516.148 C 538.836 517.100, 537.778 518.510, 535.279 524.398 C 533.622 528.304, 531.491 534.729, 530.543 538.676 C 529.588 542.657, 527.970 546.622, 526.909 547.582 C 525.042 549.272, 525.013 549.170, 525.639 543.178 C 526.196 537.847, 526.045 536.955, 524.484 536.355 C 522.649 535.651, 521.805 536.431, 514.307 545.758 C 512.551 547.943, 508.501 551.468, 505.307 553.592 C 500.186 556.998, 496.020 558.782, 477.096 565.678 C 471.930 567.561, 465 573.471, 465 575.995 C 465 577.007, 466.266 578.282, 467.973 578.989 C 469.608 579.666, 472.150 581.337, 473.623 582.702 C 476.702 585.555, 478.732 585.082, 483.992 580.286 C 485.696 578.733, 490.898 576.172, 495.748 574.500 C 503.931 571.679, 504.708 571.158, 508.795 565.750 C 512.868 560.362, 516.012 558.395, 515.990 561.250 C 515.969 563.952, 505.191 575.335, 488.623 590.154 C 484.139 594.164, 484.165 597.644, 488.684 598.188 C 492.418 598.638, 494.278 601.807, 492.687 605.009 C 490.439 609.535, 485.134 608.539, 484.596 603.490 C 484.395 601.609, 483.658 600.569, 482.397 600.388 C 481.354 600.239, 479.051 599.847, 477.280 599.518 C 474.802 599.058, 471.573 599.984, 463.280 603.531 C 450.896 608.829, 444.236 610.093, 441.760 607.617 C 440.037 605.894, 438 605.462, 438 606.820 C 438 607.271, 436.390 609.521, 434.422 611.820 C 430.719 616.146, 427.660 617.163, 426.607 614.418 C 425.443 611.385, 426.022 609.335, 429.214 605.182 C 432.613 600.760, 435.762 599.804, 438.010 602.512 C 438.965 603.663, 439.593 603.753, 440.633 602.890 C 442.523 601.321, 442.380 600.531, 439.384 596.003 C 434.691 588.912, 437.142 587.784, 451.338 590.500 C 461.411 592.428, 467.972 592.409, 470.777 590.443 C 473.935 588.232, 473.532 587, 469.650 587 C 467.613 587, 464.608 585.863, 461.981 584.099 C 458.354 581.663, 457.283 581.370, 455.303 582.272 C 453.601 583.047, 452.635 583.035, 451.827 582.227 C 451.212 581.612, 449.430 581.364, 447.868 581.676 C 446.306 581.989, 442.954 581.722, 440.419 581.084 C 432.731 579.148, 411.584 569.542, 404.190 564.626 C 400.363 562.082, 396.504 560, 395.616 560 C 393.571 560, 393.532 562.944, 395.513 567.686 C 397.212 571.751, 396.737 573.027, 394.202 571.208 C 393.266 570.537, 391.825 569.685, 391 569.317 C 390.175 568.948, 389.213 568.219, 388.863 567.697 C 387.981 566.383, 378.970 564.195, 376.788 564.766 C 373.491 565.628, 374.949 568.282, 383.048 576.166 L 391.095 584 397.537 584 C 401.338 584, 405.936 584.744, 408.754 585.814 C 415.651 588.435, 430.077 598.181, 429.751 600 C 429.317 602.429, 424.938 602.264, 417.712 599.544 C 413.995 598.145, 410.571 597, 410.102 597 C 409.633 597, 408.984 598.330, 408.659 599.955 C 407.867 603.914, 403.701 606.673, 400.705 605.223 C 399.492 604.636, 397.230 603.879, 395.679 603.541 C 393.203 603.001, 392.932 602.587, 393.465 600.158 C 394.188 596.867, 393.008 595.370, 384.447 588.718 C 372.234 579.228, 357.048 558.469, 353.042 545.788 C 351.967 542.385, 351.626 542.125, 348.937 542.663 C 344.904 543.469, 342.729 541.510, 343.543 537.803 C 344.059 535.453, 343.119 533.177, 338.426 525.421 C 332.603 515.797, 331.372 514.295, 330.237 515.430 C 329.203 516.464, 334.925 532.908, 339.308 541.500 C 341.553 545.900, 344.496 551.659, 345.847 554.299 C 348.737 559.944, 349.887 568.334, 347.937 569.539 C 346.437 570.466, 341.927 565.576, 338.901 559.743 C 334.419 551.102, 326.415 524.193, 325.008 513.030 C 323.718 502.805, 321.244 489.500, 319.427 483.026 C 317.694 476.849, 317.809 473.626, 320.042 465.811 C 321.198 461.768, 321.149 459.686, 319.691 450.675 C 318.739 444.796, 317.995 434.603, 317.989 427.364 C 317.982 419.266, 317.463 412.801, 316.586 409.914 C 314.347 402.535, 313.676 392.878, 314.970 386.645 C 315.614 383.540, 316.488 381, 316.910 381 C 318.785 381, 320.360 387.304, 320.907 397 C 321.451 406.636, 321.665 407.500, 323.500 407.500 C 325.438 407.500, 325.494 406.898, 325.307 388.062 C 325.201 377.371, 325.404 368.156, 325.757 367.584 C 326.111 367.012, 326.474 364.509, 326.564 362.022 C 327.216 343.995, 328.289 328.756, 329.198 324.603 L 330.270 319.706 332.087 322.103 C 333.694 324.223, 334.070 324.327, 335.334 323 C 336.121 322.175, 337.527 319.143, 338.459 316.262 C 340.437 310.146, 341.476 309.216, 343.892 311.402 C 344.863 312.281, 345.954 313, 346.316 313 C 347.519 313, 351.664 305.576, 353.411 300.291 C 354.358 297.427, 356.129 293.602, 357.345 291.791 C 358.562 289.981, 360.775 286.405, 362.265 283.845 C 366.865 275.938, 380.013 268, 388.511 268 C 391.413 268, 392 268.361, 392 270.146 C 392 272.625, 386.897 280.616, 380.080 288.811 C 377.477 291.940, 375.074 295.868, 374.741 297.539 C 374.407 299.211, 371.384 306.371, 368.023 313.451 C 359.121 332.203, 356.035 342.667, 358.887 344.430 C 360.438 345.388, 361.899 342.562, 363.539 335.431 C 364.416 331.619, 365.789 327.488, 366.590 326.250 C 369.880 321.167, 372.794 325.446, 370.888 332.561 C 370.307 334.727, 368.270 340.442, 366.361 345.261 C 362.533 354.923, 359.759 372.325, 357.872 398.500 C 356.628 415.759, 357.220 446.395, 358.875 450.414 C 359.535 452.017, 362.012 455.167, 364.379 457.414 C 368.220 461.062, 368.974 462.573, 371.399 471.500 C 375.022 484.835, 382.096 496.113, 387.933 497.862 C 390.066 498.501, 393.991 500.834, 396.655 503.046 C 401.553 507.114, 402.503 507.472, 424.051 513.381 C 434.785 516.325, 437.563 516.582, 438.285 514.700 C 439.526 511.464, 435.289 507.325, 425.380 502.092 C 416.918 497.623, 408.650 489.689, 405.643 483.150 C 404.289 480.207, 402.051 476.607, 400.668 475.150 C 395.492 469.695, 383.534 443.852, 381.076 432.810 C 378.074 419.326, 377.285 391.250, 379.526 377.673 C 382.864 357.444, 387.699 340.488, 390.972 337.526 C 394.260 334.550, 394.481 337.816, 391.660 347.697 C 385.964 367.650, 384.758 378.245, 387.762 381.955 C 392.046 387.245, 399.036 379.086, 404 363 C 407.951 350.197, 411.502 344.738, 417.325 342.514 C 424.506 339.771, 425.936 342.454, 421.618 350.566 L 419.236 355.041 422.171 358.183 C 423.786 359.911, 426.288 363.390, 427.731 365.913 C 429.175 368.436, 430.459 370.646, 430.585 370.824 C 430.711 371.002, 432.174 370.444, 433.836 369.585 C 437.705 367.584, 443 368.454, 443 371.090 C 443 372.102, 442.100 373.411, 441 374 C 439.813 374.635, 439 376.094, 439 377.587 C 439 379.454, 438.265 380.360, 436.156 381.095 C 433.404 382.055, 433.337 382.240, 434.067 386.863 C 435.987 399.007, 441.899 405, 451.958 405 C 457.707 405, 457.702 402.847, 451.942 397.852 C 446.805 393.396, 445.931 390.867, 448.117 386.782 C 449.090 384.964, 448.736 384.269, 445.367 381.373 C 442.151 378.610, 441.753 377.880, 443 377.036 C 443.825 376.478, 445.175 376.302, 446 376.646 C 446.825 376.989, 448.400 377.322, 449.500 377.385 C 451.183 377.482, 451.482 376.906, 451.386 373.750 C 451.323 371.688, 451.561 370, 451.913 370 C 453.501 370, 457 373.272, 457 374.757 C 457 377.023, 458.771 375.053, 459.029 372.500 C 459.409 368.727, 458.992 367.836, 455.132 364.172 C 451.433 360.661, 451.236 360.149, 450.625 352.500 C 449.845 342.731, 448.610 338.045, 445.912 334.616 C 443.433 331.463, 439.416 331.115, 438.508 333.974 C 437.291 337.808, 428.965 342, 429.022 338.750 C 429.034 338.063, 429.949 335.504, 431.056 333.064 C 432.925 328.946, 432.960 328.357, 431.551 324.836 C 429.989 320.932, 430.610 316.977, 433.019 315.488 C 434.618 314.500, 445.016 312.079, 447.846 312.036 C 449.136 312.016, 451.498 312.930, 453.095 314.068 C 454.768 315.259, 456.775 315.889, 457.832 315.553 C 461.096 314.517, 464.231 319.684, 470.503 336.437 C 474.417 346.890, 476.111 357.195, 474.118 358.427 C 469.847 361.067, 466.116 353.788, 464.929 340.500 C 464.165 331.941, 461.884 324, 460.189 324 C 459.758 324, 459.588 326.876, 459.812 330.390 C 460.155 335.768, 459.904 337.096, 458.235 338.765 C 457.143 339.857, 455.676 340.941, 454.974 341.175 C 454.228 341.424, 453.509 343.873, 453.245 347.065 C 452.838 351.971, 453.221 353.369, 457 360.764 C 459.835 366.311, 461.778 369, 462.950 369 C 463.907 369, 465.532 369.930, 466.560 371.067 C 469.273 374.064, 468.884 392.346, 465.988 398.024 C 463.844 402.225, 458.030 406.667, 451.142 409.364 L 446.784 411.070 441.973 407.983 C 439.326 406.284, 436.530 403.906, 435.759 402.697 C 433.273 398.802, 430.782 391.631, 430.133 386.500 C 429.511 381.590, 429.433 381.494, 425.806 381.193 C 422.283 380.900, 422.081 381.051, 421.442 384.457 C 421.074 386.421, 421.033 389.034, 421.351 390.264 C 421.669 391.494, 422.733 395.906, 423.715 400.068 C 424.869 404.963, 426.463 408.778, 428.226 410.866 C 429.725 412.643, 431.645 415.557, 432.492 417.342 C 434.444 421.455, 438.618 423.931, 444.842 424.668 C 453.440 425.686, 459.770 421.921, 466.981 411.500 C 475.547 399.120, 479.582 386.581, 480.817 368.500 C 482.105 349.658, 481.672 340.756, 479.308 337.409 C 475.634 332.210, 473.075 325.378, 471.987 317.863 C 471.401 313.814, 470.520 308.475, 470.029 306 C 467.935 295.437, 467.944 295.220, 470.606 292.057 C 472.467 289.845, 472.957 288.430, 472.439 286.769 C 470.659 281.062, 458.630 266.816, 451.968 262.525 C 450.026 261.274, 445.203 259.084, 441.250 257.658 C 426.622 252.382, 420.547 248.206, 421.170 243.857 C 421.655 240.466, 425.529 239.031, 434.250 239.015 C 443.116 238.998, 444.109 237.840, 438.750 233.767 C 431.123 227.969, 422.856 225.679, 410.100 225.831 C 398.774 225.966, 392.067 227.855, 377 235.155 C 370.125 238.485, 363.449 241.710, 362.165 242.320 C 360.880 242.930, 359.129 244.795, 358.273 246.465 C 357.417 248.134, 355.887 250.565, 354.872 251.867 C 353.331 253.845, 352.928 253.976, 352.423 252.659 C 351.311 249.763, 354.004 244.357, 359.400 238.650 C 362.340 235.541, 365.887 231.535, 367.283 229.749 C 369.327 227.131, 370.071 226.743, 371.110 227.750 C 372.817 229.404, 376.273 229.331, 380.532 227.551 C 384.364 225.950, 385.101 223.521, 382 222.710 C 379.073 221.945, 379.545 220.444, 383.477 218.014 C 385.390 216.832, 386.853 215.437, 386.727 214.914 C 386.602 214.390, 388.750 212.733, 391.500 211.231 C 394.856 209.398, 396.605 207.761, 396.819 206.252 C 397.022 204.824, 398.057 203.773, 399.655 203.372 C 403.955 202.292, 414.152 203.695, 422.332 206.492 C 430.455 209.269, 432.267 209.238, 429.893 206.362 C 427.738 203.752, 421.359 201.362, 411.500 199.470 C 402.137 197.673, 397 195.482, 397 193.284 C 397 192.578, 396.727 192, 396.394 192 C 393.626 192, 382.296 195.845, 373.977 199.607 C 368.409 202.126, 363.639 203.972, 363.378 203.711 C 363.117 203.451, 365.430 201.078, 368.518 198.440 C 371.606 195.802, 374.816 192.322, 375.651 190.707 C 378.523 185.154, 384.901 179.318, 391.253 176.432 C 396.783 173.920, 399.107 173.514, 411.500 172.896 C 419.200 172.513, 426.559 171.790, 427.853 171.289 C 430.043 170.443, 429.615 169.986, 421.698 164.718 C 413.832 159.484, 409 154.973, 409 152.865 C 409 150.780, 415.491 152.330, 423.172 156.250 C 429.821 159.643, 433.586 162.566, 441.853 170.750 C 450.649 179.458, 452.688 181, 455.407 181 C 460.113 181, 468.373 185.517, 474.361 191.365 C 479.591 196.473, 496.011 217.766, 499.139 223.497 C 500.197 225.436, 501.526 226.472, 502.889 226.421 C 504.050 226.377, 505 226.741, 505 227.230 C 505 227.718, 505.414 227.862, 505.920 227.550 C 506.425 227.237, 508.162 228.587, 509.780 230.549 C 513.720 235.329, 519.455 254.495, 521.435 269.500 C 521.798 272.250, 522.786 278.691, 523.630 283.813 C 526.053 298.510, 523.829 299.884, 518.473 287 C 515.466 279.765, 512.416 275, 510.793 275 C 510.074 275, 509.890 277.933, 510.232 283.929 C 510.677 291.733, 511.143 293.511, 513.934 298.047 C 516.844 302.776, 517.211 304.315, 518.065 315.369 C 518.581 322.041, 519.242 328.538, 519.535 329.807 C 519.983 331.753, 520.047 366.518, 519.628 380.908 C 519.552 383.529, 519.983 385.481, 520.691 385.722 C 521.874 386.125, 524.990 381.336, 526.042 377.500 C 526.989 374.045, 529.543 375.060, 529.186 378.750 C 528.847 382.264, 529.161 382.519, 531.979 381.011 C 535.380 379.191, 537.108 372.362, 536.791 361.999 C 536.510 352.819, 536.424 352.508, 534.250 352.738 C 532.206 352.955, 532 352.552, 532 348.348 C 532 345.428, 532.546 343.311, 533.481 342.610 C 534.733 341.671, 534.819 339.781, 534.043 330.368 C 533.021 317.968, 531.403 312.965, 527.612 310.482 L 525.057 308.808 527.227 304.654 C 529.222 300.835, 529.401 298.989, 529.449 281.787 C 529.492 266.083, 529.755 262.818, 531.086 261.487 C 533.798 258.773, 535.277 262.082, 536.150 272.821 C 536.584 278.144, 537.379 284.525, 537.919 287 C 538.458 289.475, 539.216 297.471, 539.603 304.768 C 540.359 319.040, 541.443 322.370, 544.691 320.408 C 548.130 318.331, 548.912 315.035, 547.519 308.500 C 546.437 303.427, 546.461 302.145, 547.674 300.201 C 548.464 298.937, 549.161 296.237, 549.223 294.201 C 549.382 288.993, 546.994 275.927, 545.442 273.517 C 544.535 272.107, 544.383 270.222, 544.937 267.256 C 545.498 264.249, 545.347 262.500, 544.419 261.256 C 543.223 259.653, 543.007 259.788, 541.939 262.801 C 540.495 266.875, 539.520 266.112, 539.437 260.842 C 539.402 258.646, 538.881 256.545, 538.279 256.172 C 537.676 255.800, 536.468 252.736, 535.594 249.365 C 531.337 232.933, 518.306 197.514, 511.671 184.339 C 508.953 178.942, 507.393 176.984, 505.202 176.220 C 503.615 175.667, 499.657 172.151, 496.408 168.408 C 487.321 157.940, 484.437 155.350, 478.105 151.975 C 474.885 150.259, 470.732 147.573, 468.875 146.007 C 465.811 143.420, 465.621 142.958, 466.818 140.983 C 468.919 137.518, 465.889 134.873, 460.058 135.081 C 457.551 135.171, 454.233 134.739, 452.685 134.122 C 448.949 132.633, 443.573 132.809, 437.702 134.614 M 561 142.441 C 561 143.234, 561.408 144.134, 561.907 144.442 C 562.405 144.751, 562.578 144.102, 562.290 143.001 C 561.679 140.666, 561 140.371, 561 142.441 M 255.823 146.924 C 252.672 149.403, 247.508 156.841, 248.351 157.685 C 248.708 158.041, 249.134 158.146, 249.298 157.917 C 249.462 157.688, 251.411 155.250, 253.628 152.500 C 259.844 144.791, 260.432 143.299, 255.823 146.924 M 566 153.734 C 566 154.309, 566.885 155.841, 567.967 157.139 C 569.461 158.933, 569.941 159.117, 569.967 157.905 C 569.985 157.028, 569.100 155.495, 568 154.500 C 566.900 153.505, 566 153.160, 566 153.734 M 437.229 157.187 C 437.727 158.682, 440 159.505, 440 158.190 C 440 157.653, 439.287 156.941, 438.416 156.606 C 437.443 156.233, 436.985 156.456, 437.229 157.187 M 246 161.559 C 246 162.416, 246.450 162.840, 247 162.500 C 247.550 162.160, 248 161.459, 248 160.941 C 248 160.423, 247.550 160, 247 160 C 246.450 160, 246 160.702, 246 161.559 M 335.885 164.858 C 333.406 166.430, 329.380 170.457, 326.939 173.808 C 324.497 177.158, 321.038 180.699, 319.250 181.677 C 317.462 182.655, 315.985 183.690, 315.967 183.977 C 315.948 184.265, 315.046 185.565, 313.961 186.868 C 312.326 188.831, 311.729 189.020, 310.470 187.975 C 309.635 187.282, 308.663 187.004, 308.309 187.357 C 307.956 187.711, 308.250 188, 308.962 188 C 309.939 188, 310.094 189.232, 309.594 193 C 308.807 198.938, 309.834 199.361, 315.706 195.514 C 320.648 192.276, 321.672 191.389, 322.924 189.265 C 323.810 187.760, 324.104 187.715, 324.917 188.954 C 325.727 190.190, 326.246 190.206, 328.383 189.062 C 331.697 187.289, 336.531 182.198, 335.695 181.362 C 335.333 180.999, 333.220 181.962, 331 183.500 C 326.217 186.815, 324.962 186.267, 327.897 182.145 C 330.246 178.846, 339.780 170, 340.987 170 C 341.411 170, 342.334 168.608, 343.038 166.908 C 344.108 164.326, 344.086 163.668, 342.910 162.923 C 340.930 161.670, 340.898 161.679, 335.885 164.858 M 244.667 164.667 C 244.300 165.033, 244 165.798, 244 166.367 C 244 166.993, 244.466 166.934, 245.183 166.217 C 245.834 165.566, 246.134 164.801, 245.850 164.517 C 245.566 164.232, 245.033 164.300, 244.667 164.667 M 573.775 167.558 C 573.396 167.937, 573.998 170.036, 575.113 172.221 C 577.740 177.371, 578.572 176.540, 576.253 171.080 C 575.269 168.764, 574.154 167.179, 573.775 167.558 M 242.223 170.041 C 241.665 171.439, 240.513 173.159, 239.664 173.864 C 238.814 174.569, 238.377 175.818, 238.692 176.639 C 239.093 177.684, 239.985 176.865, 241.663 173.909 C 242.983 171.587, 243.877 169.194, 243.650 168.593 C 243.424 167.992, 242.782 168.643, 242.223 170.041 M 408.500 174.929 C 404.127 175.984, 400.219 178.240, 401.833 178.778 C 403.845 179.448, 417.395 177.997, 419.048 176.934 C 420.311 176.121, 420.305 175.872, 419 175.015 C 417.297 173.898, 412.923 173.861, 408.500 174.929 M 579.079 184.583 C 579.127 185.748, 579.364 185.985, 579.683 185.188 C 579.972 184.466, 579.936 183.603, 579.604 183.271 C 579.272 182.939, 579.036 183.529, 579.079 184.583 M 234.794 186.219 C 233.981 187.473, 233.009 189.850, 232.632 191.500 L 231.949 194.500 233.902 192.021 C 235.638 189.817, 237.282 184.967, 236.547 184.219 C 236.395 184.064, 235.606 184.964, 234.794 186.219 M 411.166 185.062 C 407.811 186.407, 409.027 188.447, 413.404 188.815 C 417.128 189.128, 422 186.953, 422 184.977 C 422 183.750, 414.289 183.811, 411.166 185.062 M 442.231 191.250 C 445.723 196.578, 457 202.638, 457 199.187 C 457 196.835, 445.957 189.010, 442.628 189.004 C 440.916 189, 440.882 189.193, 442.231 191.250 M 582.015 191.559 C 582.038 192.941, 583.814 195.520, 584.364 194.969 C 584.624 194.710, 584.198 193.624, 583.418 192.557 C 582.638 191.491, 582.007 191.041, 582.015 191.559 M 492.820 195.250 C 492.610 196.727, 491.813 197.500, 490.500 197.500 C 489.163 197.500, 488.390 198.277, 488.168 199.843 C 487.926 201.551, 489.037 203.337, 492.268 206.432 C 494.705 208.767, 497.763 212.808, 499.063 215.412 C 501.635 220.563, 503 222, 503 219.559 C 503 217.564, 504.432 217.582, 507.535 219.615 C 509.494 220.898, 509.997 220.950, 509.986 219.865 C 509.955 216.855, 495.735 193, 493.972 193 C 493.514 193, 492.995 194.012, 492.820 195.250 M 230.231 197 C 229.683 198.375, 229.481 199.914, 229.782 200.421 C 230.469 201.577, 232.206 197.062, 231.643 195.586 C 231.415 194.989, 230.780 195.625, 230.231 197 M 226.459 208.309 C 226.140 209.579, 225.768 211.266, 225.633 212.059 C 225.151 214.877, 218.863 226.814, 216.947 228.548 C 215.579 229.786, 215.029 231.527, 215.098 234.405 L 215.196 238.500 216.348 234.337 C 216.982 232.048, 218.287 229.313, 219.250 228.259 C 220.213 227.205, 221 225.833, 221 225.210 C 221 224.587, 221.869 223.269, 222.930 222.280 C 224.735 220.599, 226.952 215.122, 228.409 208.750 C 229.173 205.412, 227.292 204.987, 226.459 208.309 M 369 208 C 369 208.550, 368.212 209.007, 367.250 209.015 C 364.790 209.037, 363.379 210.148, 362.587 212.689 C 362.077 214.322, 362.439 215.164, 364.008 216.004 C 365.839 216.984, 366.557 216.643, 369.556 213.370 C 373.452 209.116, 373.932 207, 371 207 C 369.900 207, 369 207.450, 369 208 M 351.111 214.111 C 349.877 215.261, 349.135 216.468, 349.462 216.795 C 349.788 217.122, 351.031 216.414, 352.222 215.222 C 355.048 212.396, 354.037 211.385, 351.111 214.111 M 593.252 229.500 C 593.263 231.700, 593.468 232.482, 593.707 231.238 C 593.946 229.994, 593.937 228.194, 593.687 227.238 C 593.437 226.282, 593.241 227.300, 593.252 229.500 M 466.250 230.618 C 464.071 231.575, 464.867 235.648, 469.907 249.345 C 472.606 256.680, 476.190 267.637, 477.871 273.694 C 479.552 279.751, 482.762 289.835, 485.003 296.103 C 489.280 308.062, 492.831 322.766, 495.469 339.437 C 496.334 344.903, 497.223 349.556, 497.445 349.779 C 497.667 350.001, 498.711 349.909, 499.765 349.575 C 503.471 348.398, 504.511 344.410, 504.326 332.082 C 504.121 318.459, 502.026 307.482, 495.095 283.725 C 492.414 274.537, 490.592 267.248, 491.046 267.529 C 492.997 268.735, 488.650 257.097, 485.286 252.110 C 484.029 250.246, 483 247.934, 483 246.973 C 483 245.047, 477.260 232.279, 476.061 231.538 C 474.742 230.723, 467.547 230.048, 466.250 230.618 M 594.755 239.500 C 595.018 240.875, 595.406 242, 595.617 242 C 595.827 242, 596 240.875, 596 239.500 C 596 238.125, 595.612 237, 595.139 237 C 594.665 237, 594.492 238.125, 594.755 239.500 M 397.750 244.220 C 395.484 245.533, 394 247.149, 394 248.304 C 394 249.727, 394.447 250.033, 395.750 249.505 C 396.712 249.115, 398.850 248.326, 400.500 247.753 C 404.351 246.414, 406 245.102, 406 243.378 C 406 241.336, 402.024 241.742, 397.750 244.220 M 596 244 C 596 244.550, 596.477 245, 597.059 245 C 597.641 245, 597.840 244.550, 597.500 244 C 597.160 243.450, 596.684 243, 596.441 243 C 596.198 243, 596 243.450, 596 244 M 212.729 251.604 C 212.328 252.005, 212 253.023, 212 253.867 C 212 254.992, 212.296 255.104, 213.113 254.288 C 213.724 253.676, 214.053 252.657, 213.842 252.025 C 213.631 251.393, 213.130 251.203, 212.729 251.604 M 272.927 275.411 C 273.484 276.083, 274.230 279.302, 274.586 282.566 C 275.168 287.911, 278.343 294.975, 280.171 294.993 C 280.918 295.001, 281.591 291.972, 282.512 284.463 C 283.031 280.223, 282.814 279.142, 281.138 277.625 C 278.757 275.470, 271.310 273.463, 272.927 275.411 M 599.136 283.628 C 599.059 285.402, 599.684 287.322, 600.580 288.067 C 601.785 289.067, 602.116 291.055, 601.973 296.439 C 601.732 305.539, 601.839 307, 602.750 307 C 604.147 307.001, 603.076 288.743, 601.581 287.067 C 600.812 286.205, 599.978 284.375, 599.727 283 C 599.330 280.818, 599.255 280.898, 599.136 283.628 M 209.250 285.720 C 208.563 285.966, 208.018 287.592, 208.039 289.333 L 208.078 292.500 209.554 289.099 C 211.161 285.398, 211.129 285.049, 209.250 285.720 M 260.122 295.342 C 259.892 303.977, 260.064 304.963, 262.241 307.493 C 264.498 310.118, 264.692 310.165, 266.362 308.495 C 267.374 307.483, 267.846 306.057, 267.478 305.121 C 267.127 304.229, 266.001 300.165, 264.974 296.090 C 263.948 292.014, 262.493 288.064, 261.741 287.312 C 260.584 286.155, 260.334 287.393, 260.122 295.342 M 208.079 295.583 C 208.127 296.748, 208.364 296.985, 208.683 296.188 C 208.972 295.466, 208.936 294.603, 208.604 294.271 C 208.272 293.939, 208.036 294.529, 208.079 295.583 M 212 310.059 C 212 310.641, 212.450 310.840, 213 310.500 C 213.550 310.160, 214 309.684, 214 309.441 C 214 309.198, 213.550 309, 213 309 C 212.450 309, 212 309.477, 212 310.059 M 334.667 309.667 C 334.300 310.033, 334 310.798, 334 311.367 C 334 311.993, 334.466 311.934, 335.183 311.217 C 335.834 310.566, 336.134 309.801, 335.850 309.517 C 335.566 309.233, 335.033 309.300, 334.667 309.667 M 209.768 320.435 C 209.512 321.775, 209.677 323.462, 210.136 324.185 C 210.667 325.023, 210.975 324.140, 210.985 321.750 C 211.002 317.463, 210.450 316.866, 209.768 320.435 M 605 319.227 C 605 320.137, 605.482 321.180, 606.070 321.543 C 606.659 321.907, 607.569 323.171, 608.093 324.352 C 608.879 326.123, 608.943 325.974, 608.457 323.500 C 607.753 319.913, 605 316.510, 605 319.227 M 554.831 321.913 C 551.163 322.236, 547.838 322.825, 547.443 323.222 C 546.217 324.451, 547.052 342.188, 548.498 345.650 C 550.120 349.531, 553.679 350.790, 557.986 349.006 C 562.950 346.949, 563.289 345.945, 561.869 337.494 C 561.065 332.705, 560.944 329.617, 561.544 329.186 C 563.160 328.026, 566.174 322, 565.138 322 C 564.602 322, 563.564 321.848, 562.832 321.663 C 562.099 321.478, 558.499 321.590, 554.831 321.913 M 509.003 332.492 C 507.795 335.669, 507.641 371.806, 508.841 370.450 C 509.303 369.928, 510.670 365.661, 511.877 360.969 C 513.622 354.188, 514.013 350.191, 513.786 341.481 C 513.538 331.982, 513.268 330.479, 511.753 330.189 C 510.614 329.971, 509.657 330.773, 509.003 332.492 M 608.701 335.728 C 609.476 340.749, 610 341.152, 610 336.726 C 610 334.741, 609.577 332.856, 609.059 332.537 C 608.498 332.190, 608.354 333.478, 608.701 335.728 M 280.630 336.250 C 279.096 341.973, 280.717 343.888, 283.500 339.641 C 285.154 337.116, 284.607 334, 282.510 334 C 281.808 334, 280.962 335.012, 280.630 336.250 M 319.250 340.899 C 317.761 344.947, 317.611 350.642, 318.971 351.482 C 320.343 352.330, 321.179 348.224, 320.812 342.434 L 320.500 337.500 319.250 340.899 M 270.411 348.496 C 268.620 351.229, 269.022 355.720, 271.615 361.927 C 273.785 367.124, 275.281 364.479, 275.804 354.522 C 276.231 346.387, 276.155 346, 274.148 346 C 272.992 346, 271.310 347.123, 270.411 348.496 M 205 358.059 C 205 358.641, 205.450 358.840, 206 358.500 C 206.550 358.160, 207 357.684, 207 357.441 C 207 357.198, 206.550 357, 206 357 C 205.450 357, 205 357.477, 205 358.059 M 609 368 C 609 372.583, 609.293 376.040, 609.652 375.681 C 610.358 374.976, 610.166 360.832, 609.441 360.107 C 609.198 359.865, 609 363.417, 609 368 M 545.907 364.677 C 544.730 367.701, 545.381 382.397, 547.006 389.500 C 548.740 397.075, 540.262 420.109, 535.118 421.800 C 534.079 422.142, 533.850 421.473, 534.197 419.108 C 534.491 417.110, 534.134 415.527, 533.221 414.769 C 530.974 412.903, 529.577 415.694, 526.580 428.037 C 520.835 451.695, 506.809 477.139, 492.714 489.469 C 489.904 491.927, 487.856 494.190, 488.164 494.497 C 489.466 495.800, 494.684 492.528, 500.948 486.480 C 511.760 476.042, 513.702 479.043, 503.360 490.207 C 491.005 503.545, 506.502 504.151, 520.536 490.878 C 527.075 484.693, 530.646 477.710, 534.533 463.500 C 536.038 458, 538.548 451.163, 540.111 448.307 C 542.439 444.052, 543.002 441.687, 543.226 435.219 C 543.467 428.265, 543.709 427.378, 545.250 427.779 C 546.824 428.188, 547 427.294, 547.001 418.867 C 547.001 411.946, 547.662 407.089, 549.532 400.267 C 551.849 391.816, 551.984 390.248, 551.132 381.767 C 550.534 375.813, 550.550 371.846, 551.178 370.672 C 551.715 369.666, 551.808 368.091, 551.384 367.172 C 550.961 366.252, 550.588 364.831, 550.555 364.013 C 550.444 361.210, 547.069 361.692, 545.907 364.677 M 317 365 C 317 365.550, 317.477 366, 318.059 366 C 318.641 366, 318.840 365.550, 318.500 365 C 318.160 364.450, 317.684 364, 317.441 364 C 317.198 364, 317 364.450, 317 365 M 610.505 380.125 C 611.430 383.177, 612.760 384.587, 613.733 383.546 C 614.155 383.095, 613.938 382.525, 613.250 382.280 C 612.563 382.034, 612 381.222, 612 380.476 C 612 379.729, 611.502 378.810, 610.893 378.434 C 610.134 377.965, 610.012 378.498, 610.505 380.125 M 205.079 396.583 C 205.127 397.748, 205.364 397.985, 205.683 397.188 C 205.972 396.466, 205.936 395.603, 205.604 395.271 C 205.272 394.939, 205.036 395.529, 205.079 396.583 M 403.375 409.464 C 402.592 411.504, 403.643 418.211, 405.408 422.433 C 406.947 426.119, 422.295 438.284, 424.794 437.799 C 427.638 437.247, 427.092 435.343, 422.282 429.047 C 419.652 425.604, 415.250 419.577, 412.500 415.653 C 407.472 408.478, 404.521 406.477, 403.375 409.464 M 271.667 420.667 C 270.338 421.995, 271.044 424.953, 272.931 425.963 C 274.388 426.743, 275.246 426.611, 276.431 425.427 C 278.315 423.543, 278.381 422.781, 276.800 421.200 C 275.493 419.893, 272.728 419.605, 271.667 420.667 M 487.561 424.130 C 481.945 428.548, 479 433.855, 479 439.556 C 479 444.308, 479.191 444.763, 480.986 444.294 C 483.708 443.582, 489.618 436.849, 491.523 432.290 C 493.219 428.232, 493.163 422.871, 491.419 422.300 C 490.825 422.105, 489.089 422.929, 487.561 424.130 M 512.673 426.750 C 511.708 427.712, 509.793 432.181, 508.419 436.681 C 506.444 443.150, 505.175 445.517, 502.355 447.993 C 500.394 449.715, 498.594 450.927, 498.354 450.688 C 498.115 450.448, 498.898 448.592, 500.096 446.562 C 504.436 439.206, 498.587 440.342, 489.500 448.622 C 485.038 452.687, 475.645 458, 472.920 458 C 472.358 458, 467.533 459.841, 462.199 462.091 C 444.537 469.541, 444.707 472.443, 462.890 473.905 C 475.177 474.892, 477.887 476.054, 474.360 478.821 C 473.182 479.744, 470.812 481.271, 469.092 482.213 C 462.292 485.940, 465.052 491.008, 474.298 491.775 C 479.640 492.218, 479.802 492.150, 486.085 486.813 C 493.336 480.654, 503.790 467.317, 508.195 458.605 C 510.724 453.603, 514.122 440.994, 516.375 428.250 C 517.032 424.536, 515.512 423.920, 512.673 426.750 M 208.557 439.382 C 209.259 447.777, 210.931 450.111, 210.970 442.750 C 210.986 439.587, 210.583 437, 210.073 437 C 209.564 437, 208.903 436.212, 208.606 435.250 C 208.308 434.288, 208.286 436.147, 208.557 439.382 M 281.667 447.667 C 280.235 449.099, 281.041 453.952, 282.874 454.933 C 286.281 456.756, 289.624 451.024, 286.800 448.200 C 285.493 446.893, 282.728 446.605, 281.667 447.667 M 612.750 450.208 C 611.788 451.194, 611.052 453.238, 611.116 454.750 C 611.204 456.838, 611.349 457.019, 611.719 455.500 C 611.987 454.400, 612.881 452.739, 613.706 451.808 C 615.783 449.464, 614.908 447.999, 612.750 450.208 M 330.646 452.250 C 329.876 453.488, 328.297 458.550, 327.138 463.500 C 324.519 474.677, 325.100 477.699, 333.527 496.772 C 339.672 510.679, 342.087 514.313, 344.841 513.806 C 347.287 513.355, 350.121 506.757, 350.724 500.111 C 351.178 495.106, 350.892 493.668, 348.693 489.893 C 345.995 485.259, 343.683 476.491, 342.525 466.500 C 341.055 453.816, 334.537 445.997, 330.646 452.250 M 213 468.142 C 213 471.650, 213.568 474.315, 214.582 475.559 C 216.141 477.472, 216.153 477.472, 215.444 475.500 C 215.049 474.400, 214.649 471.374, 214.555 468.776 C 214.313 462.082, 213 461.547, 213 468.142 M 288.246 481.154 C 286.406 482.994, 286.736 487.055, 289.030 490.818 C 291.612 495.053, 293.926 494.676, 296.396 489.617 C 299.064 484.152, 297.778 480.612, 292.978 480.204 C 291.060 480.042, 288.931 480.469, 288.246 481.154 M 549.903 490.437 C 546.773 493.973, 544 499.475, 544 502.149 C 544 503.524, 546.652 503.125, 547.955 501.554 C 549.022 500.268, 554.185 486.696, 553.695 486.465 C 553.588 486.415, 551.881 488.202, 549.903 490.437 M 523.385 490.214 C 521.798 491.432, 516.450 496.179, 511.500 500.764 C 502.267 509.316, 491.688 516.223, 482.034 520.002 C 472.561 523.709, 468.564 524.050, 455.386 522.273 C 443.409 520.657, 443.197 520.663, 436.815 522.819 C 427.414 525.995, 422.491 525.703, 414.569 521.500 C 407.261 517.623, 404.883 517.231, 402.930 519.584 C 401.051 521.848, 402.493 523.614, 409.863 528.070 C 417.507 532.692, 426.960 535, 438.247 535 C 442.841 535, 447.076 535.476, 447.658 536.058 C 448.402 536.802, 449.871 536.516, 452.608 535.093 C 458.145 532.216, 473.321 528.789, 481.213 528.633 C 486.482 528.529, 488.311 528.889, 489.713 530.307 C 491.431 532.044, 491.361 532.242, 487.907 535.426 C 483.364 539.615, 475.393 542.609, 463.680 544.528 C 458.631 545.355, 451.003 546.699, 446.730 547.516 C 442.456 548.332, 437.854 549, 436.503 549 C 432.981 549, 423.068 545.085, 409.779 538.447 C 402.896 535.008, 397.598 532.940, 396.627 533.313 C 393.971 534.332, 394.757 538.424, 398.707 544.138 C 400.747 547.087, 403.638 551.723, 405.133 554.440 C 407.638 558.992, 408.388 559.567, 414.676 561.749 C 426.133 565.727, 431.238 567.045, 437.565 567.663 C 443.275 568.220, 444.298 567.960, 455.065 563.212 C 461.354 560.438, 471.450 556.753, 477.500 555.021 C 494.031 550.291, 503.620 545.181, 513.481 535.846 C 524.047 525.844, 525.462 522.989, 524.644 513.312 C 524.110 506.998, 524.369 505.066, 526.512 499.372 C 530.576 488.576, 529.526 485.501, 523.385 490.214 M 600.793 492.149 C 599.710 494.686, 599.512 495.996, 600.249 495.750 C 601.320 495.393, 603.505 489.171, 602.805 488.472 C 602.635 488.301, 601.729 489.957, 600.793 492.149 M 217 499.941 C 217 501.009, 217.385 502.120, 217.856 502.411 C 218.326 502.702, 218.499 501.828, 218.239 500.470 C 217.675 497.519, 217 497.231, 217 499.941 M 596 509.059 C 596 509.641, 596.450 509.840, 597 509.500 C 597.550 509.160, 598 508.684, 598 508.441 C 598 508.198, 597.550 508, 597 508 C 596.450 508, 596 508.477, 596 509.059 M 594.689 513.368 C 594.257 514.945, 594.150 516.483, 594.451 516.785 C 595.494 517.828, 596.149 516.172, 595.813 513.341 L 595.476 510.500 594.689 513.368 M 592.100 520.295 C 590.835 522.402, 590.857 522.423, 592.579 520.774 C 593.570 519.824, 594.166 518.832, 593.903 518.569 C 593.640 518.306, 592.829 519.083, 592.100 520.295 M 220.667 519.667 C 219.632 520.701, 219.881 525.809, 221 526.500 C 221.604 526.873, 222 525.510, 222 523.059 C 222 518.914, 221.836 518.497, 220.667 519.667 M 285 523 C 285 524.111, 285.667 525, 286.500 525 C 287.333 525, 288 524.111, 288 523 C 288 521.889, 287.333 521, 286.500 521 C 285.667 521, 285 521.889, 285 523 M 585.173 540.503 C 583.955 546.666, 581.621 551.228, 576.666 557.127 C 573.898 560.422, 561.264 580.148, 560.281 582.709 C 560.009 583.419, 560.290 584, 560.905 584 C 562.293 584, 569 573.672, 569 571.536 C 569 570.677, 571.362 568.460, 574.250 566.607 C 582.692 561.192, 584.176 558.913, 586.448 547.884 C 587.406 543.236, 587.671 539.389, 587.163 537.503 C 586.409 534.696, 586.282 534.886, 585.173 540.503 M 226.252 543.500 C 226.263 545.700, 226.468 546.482, 226.707 545.238 C 226.946 543.994, 226.937 542.194, 226.687 541.238 C 226.437 540.282, 226.241 541.300, 226.252 543.500 M 230.031 554.500 C 230.031 555.050, 230.467 556.175, 231 557 C 231.533 557.825, 231.969 558.050, 231.969 557.500 C 231.969 556.950, 231.533 555.825, 231 555 C 230.467 554.175, 230.031 553.950, 230.031 554.500 M 387.500 571 C 386.684 572.320, 387.880 574.192, 389.069 573.457 C 390.284 572.707, 390.276 570, 389.059 570 C 388.541 570, 387.840 570.450, 387.500 571 M 241.979 576.745 C 244.929 579.372, 246 579.573, 246 577.500 C 246 576.601, 245.078 576, 243.700 576 C 242.435 576, 240.963 575.663, 240.429 575.250 C 239.895 574.837, 240.592 575.510, 241.979 576.745 M 510.166 577.536 C 508.788 580.559, 509.360 582, 511.937 582 C 514.664 582, 516.623 579.213, 515.335 577.166 C 513.677 574.534, 511.461 574.692, 510.166 577.536 M 360.966 579.064 C 359.651 581.521, 361.202 584, 364.055 584 C 366.326 584, 367.566 580.387, 365.960 578.452 C 364.260 576.404, 362.258 576.649, 360.966 579.064 M 325.768 579.168 C 326.350 579.750, 327.415 580.028, 328.137 579.788 C 328.886 579.538, 328.432 579.085, 327.080 578.731 C 325.417 578.296, 325.026 578.426, 325.768 579.168 M 248 581.312 C 248 583.322, 250.239 587.058, 252.013 588.007 C 254.067 589.106, 254.082 589.060, 252.627 586.245 C 251.221 583.527, 248 580.093, 248 581.312 M 558 587 C 558 587.550, 558.450 588, 559 588 C 559.550 588, 560 587.550, 560 587 C 560 586.450, 559.550 586, 559 586 C 558.450 586, 558 586.450, 558 587 M 550.321 595.405 C 548.804 596.246, 548.406 597.039, 549.010 598.017 C 549.732 599.185, 550.223 599.108, 551.939 597.555 C 555.461 594.368, 554.498 593.088, 550.321 595.405 M 261.598 600 C 262.522 601.925, 263.575 603.725, 263.937 604 C 264.298 604.275, 265.839 607.200, 267.361 610.500 C 268.883 613.800, 270.479 617.175, 270.909 618 C 271.339 618.825, 272.255 621.862, 272.945 624.750 C 274.146 629.776, 276.012 631.921, 275.989 628.250 C 275.968 624.847, 270.902 610.898, 268.998 609 C 268.723 608.725, 267.866 607.275, 267.094 605.777 C 266.323 604.280, 264.392 601.580, 262.804 599.777 L 259.916 596.500 261.598 600 M 546.081 607.849 C 544.769 610.300, 544.725 611, 545.883 611 C 546.794 611, 548.218 606.884, 547.541 606.208 C 547.333 605.999, 546.676 606.738, 546.081 607.849 M 416 614.810 C 416 616.737, 418.718 618.615, 419.858 617.476 C 420.598 616.736, 418.706 613.735, 417.179 613.226 C 416.530 613.010, 416 613.723, 416 614.810 M 541.605 618.545 C 540.013 621.592, 537.772 624.587, 536.624 625.201 C 535.477 625.815, 532.857 628.068, 530.801 630.207 C 527.967 633.157, 527.093 634.869, 527.182 637.298 C 527.247 639.059, 526.977 641.513, 526.582 642.750 C 526.181 644.009, 526.284 645, 526.816 645 C 527.972 645, 528.968 641.561, 528.987 637.500 C 529.004 634.041, 533.885 628.128, 538.307 626.209 C 540.259 625.362, 541.858 623.308, 543.557 619.467 C 546.241 613.398, 546.346 612.999, 545.250 613.002 C 544.837 613.004, 543.197 615.498, 541.605 618.545 M 429 621.893 C 429 622.384, 429.739 623.069, 430.641 623.416 C 432.014 623.943, 432.076 623.796, 431.019 622.523 C 429.579 620.788, 429 620.607, 429 621.893 M 279.731 639.080 C 280.085 640.432, 280.538 640.886, 280.788 640.137 C 281.028 639.415, 280.750 638.350, 280.168 637.768 C 279.426 637.026, 279.296 637.417, 279.731 639.080 M 523.068 649.904 C 520.845 653.026, 520.542 654, 521.792 654 C 522.227 654, 523.297 652.425, 524.170 650.500 C 526.101 646.239, 525.796 646.074, 523.068 649.904 M 518.964 657.164 C 517.819 659.397, 517.846 659.424, 519.574 657.774 C 520.568 656.824, 521.107 655.773, 520.771 655.438 C 520.436 655.103, 519.623 655.880, 518.964 657.164 M 313.461 665.937 C 314.344 667.365, 320 669.971, 320 668.949 C 320 668.455, 318.672 667.365, 317.050 666.526 C 313.659 664.772, 312.638 664.605, 313.461 665.937 M 323 671.500 C 323.685 672.325, 324.977 672.986, 325.872 672.968 C 327.240 672.941, 327.190 672.702, 325.559 671.468 C 323.032 669.557, 321.404 669.577, 323 671.500 M 331 675.974 C 331 676.879, 336.082 680, 337.555 680 C 337.915 680, 337.150 678.883, 335.855 677.517 C 333.459 674.991, 331 674.210, 331 675.974 M 498.500 682 C 498.160 682.550, 498.359 683, 498.941 683 C 499.523 683, 500 682.550, 500 682 C 500 681.450, 499.802 681, 499.559 681 C 499.316 681, 498.840 681.450, 498.500 682 M 344 682.839 C 344 685.074, 351.291 688.981, 352.306 687.291 C 352.568 686.856, 350.805 685.485, 348.391 684.244 C 345.976 683.003, 344 682.371, 344 682.839 M 489.500 688.469 C 487.850 689.821, 487.063 690.944, 487.750 690.964 C 488.438 690.984, 489 690.550, 489 690 C 489 689.450, 489.852 689, 490.893 689 C 491.934 689, 493.045 688.325, 493.362 687.500 C 494.191 685.340, 492.932 685.656, 489.500 688.469 M 476 693.693 L 470.500 694.959 475.772 694.624 C 478.672 694.440, 481.334 693.999, 481.689 693.645 C 482.914 692.420, 481.479 692.432, 476 693.693 M 452.500 696 C 452.133 696.594, 453.303 697, 455.382 697 C 457.307 697, 459.160 696.550, 459.500 696 C 459.867 695.406, 458.697 695, 456.618 695 C 454.693 695, 452.840 695.450, 452.500 696 M 373.500 696.782 C 375.013 698.411, 380 699.428, 380 698.108 C 380 697.499, 379.137 697, 378.082 697 C 377.027 697, 375.339 696.709, 374.332 696.353 C 373.052 695.901, 372.801 696.030, 373.500 696.782 M 434.250 696.689 C 435.212 696.941, 436.788 696.941, 437.750 696.689 C 438.712 696.438, 437.925 696.232, 436 696.232 C 434.075 696.232, 433.288 696.438, 434.250 696.689 M 444.750 696.662 C 445.438 696.940, 446.563 696.940, 447.250 696.662 C 447.938 696.385, 447.375 696.158, 446 696.158 C 444.625 696.158, 444.063 696.385, 444.750 696.662 " stroke="none" fill="black" fill-rule="evenodd"/>
</svg>